<svg width="131" height="21" viewBox="0 0 131 21" fill="none" xmlns="http://www.w3.org/2000/svg">
<path d="M8.42497 0.399999C10.0116 0.399999 11.3556 0.558666 12.457 0.875999C13.577 1.19333 14.473 1.72533 15.145 2.472C15.8356 3.21867 16.3303 4.236 16.629 5.524C16.9463 6.79333 17.105 8.39867 17.105 10.34C17.105 12.2813 16.9463 13.896 16.629 15.184C16.3303 16.4533 15.8356 17.4613 15.145 18.208C14.473 18.9547 13.577 19.4867 12.457 19.804C11.3556 20.1213 10.0116 20.28 8.42497 20.28C6.87564 20.28 5.44764 20.252 4.14097 20.196C2.85297 20.14 1.6303 20.0747 0.472969 20L2.62897 16.22C3.30097 16.276 4.13164 16.3227 5.12097 16.36C6.1103 16.3787 7.21164 16.388 8.42497 16.388C9.22764 16.388 9.85297 16.22 10.301 15.884C10.7676 15.548 11.0943 14.9413 11.281 14.064C11.4676 13.1867 11.561 11.9453 11.561 10.34C11.561 8.73467 11.4676 7.49333 11.281 6.616C11.0943 5.73867 10.7676 5.132 10.301 4.796C9.85297 4.46 9.22764 4.292 8.42497 4.292C7.2863 4.292 6.26897 4.292 5.37297 4.292C4.49564 4.292 3.6463 4.292 2.82497 4.292L0.472969 0.679998C1.64897 0.605333 2.87164 0.54 4.14097 0.483999C5.42897 0.427999 6.85697 0.399999 8.42497 0.399999ZM5.73697 0.679998V20H0.472969V0.679998H5.73697ZM24.087 0.595999C25.1697 0.595999 26.271 0.595999 27.391 0.595999C28.5297 0.595999 29.6404 0.623999 30.723 0.679998C31.8244 0.717332 32.8324 0.791999 33.747 0.903999L33.495 4.656H26.271C25.8604 4.656 25.543 4.768 25.319 4.992C25.095 5.19733 24.983 5.48667 24.983 5.86V14.82C24.983 15.1933 25.095 15.492 25.319 15.716C25.543 15.9213 25.8604 16.024 26.271 16.024H33.495L33.747 19.776C32.8324 19.8693 31.8244 19.944 30.723 20C29.6404 20.0373 28.5297 20.056 27.391 20.056C26.271 20.0747 25.1697 20.084 24.087 20.084C22.799 20.084 21.7537 19.7013 20.951 18.936C20.1484 18.1707 19.747 17.172 19.747 15.94V4.74C19.747 3.48933 20.1484 2.49067 20.951 1.744C21.7537 0.978666 22.799 0.595999 24.087 0.595999ZM20.251 8.268H32.487V11.824H20.251V8.268ZM52.98 0.679998L48.024 18.572C47.912 19.0013 47.688 19.3467 47.352 19.608C47.0346 19.8693 46.652 20 46.204 20H41.528C41.0613 20 40.66 19.8693 40.324 19.608C40.0066 19.3467 39.8013 19.0013 39.708 18.572L34.724 0.679998H40.128L43.096 13.868C43.1706 14.2227 43.2453 14.5867 43.32 14.96C43.3946 15.3333 43.46 15.6973 43.516 16.052H44.188C44.244 15.6973 44.3093 15.3333 44.384 14.96C44.4586 14.5867 44.5333 14.2227 44.608 13.868L47.576 0.679998H52.98Z" fill="#3B82F6"/>
<path d="M69.675 0.679998V19.44C69.675 19.8133 69.4883 20 69.115 20H67.603C67.4536 20 67.323 19.972 67.211 19.916C67.1176 19.8413 67.0336 19.7293 66.959 19.58L58.615 3.788C58.447 3.47067 58.2696 3.13467 58.083 2.78C57.8963 2.42533 57.7283 2.07067 57.579 1.716H56.935C56.9536 2.07067 56.963 2.42533 56.963 2.78C56.963 3.13467 56.963 3.48 56.963 3.816V20H55.815V1.24C55.815 0.866665 56.0016 0.679998 56.375 0.679998H57.775C57.943 0.679998 58.0736 0.717332 58.167 0.791999C58.279 0.847999 58.3723 0.950666 58.447 1.1L66.567 16.528C66.7723 16.9013 66.9776 17.2933 67.183 17.704C67.407 18.1147 67.6216 18.5253 67.827 18.936H68.527C68.527 18.488 68.527 18.0493 68.527 17.62C68.527 17.172 68.527 16.7333 68.527 16.304V0.679998H69.675ZM76.3497 0.679998V20H75.2017V0.679998H76.3497ZM88.5929 0.343999C89.3956 0.343999 90.1049 0.362666 90.7209 0.399999C91.3369 0.437333 91.9062 0.493333 92.4289 0.568C92.9702 0.623999 93.5116 0.717332 94.0529 0.848L93.8569 1.688C93.2782 1.61333 92.7182 1.55733 92.1769 1.52C91.6542 1.464 91.1036 1.42667 90.5249 1.408C89.9649 1.38933 89.3302 1.38 88.6209 1.38C87.4636 1.38 86.4836 1.52933 85.6809 1.828C84.8782 2.12667 84.2342 2.62133 83.7489 3.312C83.2636 3.984 82.9089 4.89867 82.6849 6.056C82.4796 7.21333 82.3769 8.65067 82.3769 10.368C82.3769 12.4773 82.5449 14.1947 82.8809 15.52C83.2356 16.8267 83.7956 17.788 84.5609 18.404C85.3449 19.0013 86.3809 19.3 87.6689 19.3C88.5462 19.3 89.3209 19.1693 89.9929 18.908C90.6649 18.628 91.2809 18.2827 91.8409 17.872C92.4009 17.4613 92.9236 17.0413 93.4089 16.612L93.6049 17.396C93.1569 17.9187 92.6156 18.404 91.9809 18.852C91.3649 19.3 90.6836 19.664 89.9369 19.944C89.1902 20.2053 88.3689 20.336 87.4729 20.336C85.9609 20.336 84.7382 19.9907 83.8049 19.3C82.8902 18.5907 82.2182 17.4987 81.7889 16.024C81.3596 14.5493 81.1449 12.6453 81.1449 10.312C81.1449 7.82933 81.3782 5.86 81.8449 4.404C82.3302 2.948 83.1142 1.912 84.1969 1.296C85.2982 0.661333 86.7636 0.343999 88.5929 0.343999ZM94.4169 8.8V20H93.6049L93.3529 17.2L93.2689 16.808V8.8H94.4169ZM100.522 0.679998V20H99.3736V0.679998H100.522ZM111.47 9.136V10.144H100.298V9.136H111.47ZM112.31 0.679998V20H111.162V0.679998H112.31ZM123.598 0.679998V20H122.45V0.679998H123.598ZM130.262 0.679998V1.688H115.814V0.679998H130.262Z" fill="white"/>
</svg>
